<?xml version="1.0" encoding="UTF-8"?>
<svg xmlns="http://www.w3.org/2000/svg" viewBox="0 0 500 500" width="500" height="500">
<path d="M164.91 85.75C157.44 92.72 148.99 98.74 142.41 106.65C118.24 135.68 92.19 180.47 110.25 218.55C119.43 237.9 142.14 247.87 159.93 257.31C166.55 260.83 172.74 265.12 178.82 269.43C194.24 280.39 208.11 295.7 217.8 311.93C220.36 316.23 222.89 320.89 224.69 325.57C225.89 328.71 226.88 332.67 228.75 335.42C230.62 328.34 228.7 317.05 229.39 309.25C231.36 286.8 234.56 265.59 243.45 244.73C255.72 215.96 279.01 193.45 306.59 179.34C323.7 170.59 343.16 166.03 359.63 155.88C367.92 150.77 375.78 145.4 382.14 137.89C384.92 134.61 389 125.97 391.75 124.05C396.81 129.11 399.16 140.93 401.02 147.73C409.15 177.42 400.4 212.28 376.86 232.61C366.74 241.36 355.54 248.1 343.47 253.69C328.98 260.4 313.44 264.55 299.22 271.95C276.41 283.82 256.54 303.63 248.15 328.35C244.3 339.68 241.73 350.81 240.86 362.82C240.07 373.77 239.21 387.09 242.25 397.83C246.97 400.77 254.9 398.98 260.25 399.08C278.98 399.45 297.34 395.57 314.47 388.26C322.41 384.87 330.27 381.5 337.67 376.93C379.28 351.27 409.36 304.42 415.99 256.25C417.72 243.64 419.07 230 417.85 217.25C417.25 210.95 416.74 204.53 416.06 198.25C415.81 195.92 414.85 194.33 415.25 191.85C417.42 195.13 419.53 209.27 420.06 213.75C421.84 228.62 423.36 243.97 421.74 258.97C421.17 264.29 419.78 269.53 418.96 274.75C408.19 343.34 351.86 403.5 282.67 414.78C253.12 419.6 223.21 415.54 195.44 404.76C184.16 400.38 173.53 393.87 163.61 387.14C94.62 340.28 67.65 247.83 97.03 170.25C106.86 144.3 122.64 118.46 144.37 100.61C149.24 96.6 153.86 92.43 159.15 88.91C160.85 87.77 162.96 85.84 164.91 85.75ZM101.25 244.53C99.2 256.76 103.68 273.57 107.65 285.15C119.73 320.3 141.49 349.37 171.59 371.19C181.38 378.28 192.01 383.67 203.18 388.19C206.68 389.6 211.14 392.53 215.04 391.75C213.1 389.31 209.81 387.85 207.35 385.89C201.19 381 194.64 376.62 188.45 371.79C169.67 357.14 150.9 340.98 136.21 322.05C126.44 309.45 115.41 291.61 110.25 276.56C107.7 269.12 105.47 261.43 103.44 253.77C102.68 250.92 103.01 246.9 101.25 244.53Z" fill="#5f7d64" fill-rule="evenodd" stroke="#5f7d64" stroke-width="0.25" stroke-linejoin="round"/>
<path d="M254.83 73.7C259.53 73.47 263.96 74.4 268.4 75.81C307.4 88.13 300.97 147.72 259.75 150.85C254.95 151.22 250.71 150.44 246.14 149.18C205.52 137.96 212.39 75.82 254.83 73.7Z" fill="#ba9167" fill-rule="evenodd" stroke="#ba9167" stroke-width="0.25" stroke-linejoin="round"/>
</svg>